<?xml version="1.0" standalone="no"?>
<!DOCTYPE svg PUBLIC "-//W3C//DTD SVG 20010904//EN"
 "http://www.w3.org/TR/2001/REC-SVG-20010904/DTD/svg10.dtd">
<svg version="1.0" xmlns="http://www.w3.org/2000/svg"
 width="700.000000pt" height="700.000000pt" viewBox="0 0 700.000000 700.000000"
 preserveAspectRatio="xMidYMid meet">
<metadata>
Created based on Mojtaba Sadatpour logo
</metadata>
<g transform="translate(0.000000,700.000000) scale(0.100000,-0.100000)"
fill="#000000" stroke="none">
<path d="M3278 6996 c-1 -2 -41 -6 -88 -10 -47 -4 -96 -8 -110 -10 -14 -2 -52
-7 -85 -10 -33 -4 -71 -9 -85 -11 -14 -3 -41 -7 -60 -10 -65 -9 -271 -56 -365
-82 -674 -190 -1261 -576 -1705 -1121 -134 -164 -320 -436 -320 -467 0 -7 -4
-15 -9 -17 -5 -1 -37 -59 -71 -128 -33 -69 -65 -132 -70 -140 -42 -69 -170
-438 -200 -575 -3 -11 -7 -31 -10 -45 -22 -92 -56 -296 -70 -415 -8 -71 -8
-525 0 -590 2 -19 7 -69 11 -110 4 -41 8 -84 10 -95 2 -11 6 -42 10 -70 4 -27
8 -57 10 -65 2 -8 7 -31 10 -50 35 -209 179 -628 281 -820 10 -19 39 -73 63
-120 170 -323 447 -675 745 -949 105 -96 289 -246 310 -253 3 -1 25 -16 50 -33
152 -103 411 -234 615 -312 101 -38 297 -101 345 -111 14 -3 61 -15 106 -25
187 -45 362 -68 599 -77 104 -5 362 5 465 17 19 2 58 7 85 10 217 26 539 110
780 204 91 35 260 115 325 154 17 10 62 35 102 56 64 34 289 178 333 214 10 8
70 56 133 105 301 238 575 540 783 861 37 56 69 105 72 108 3 3 11 17 19 33 7
15 17 27 22 27 4 0 8 4 8 10 0 9 63 124 123 225 39 66 191 404 226 500 18 50
37 102 43 115 5 13 7 26 4 29 -3 3 -1 6 5 6 5 0 10 6 10 13 0 6 20 91 46 187
55 207 76 310 99 485 9 72 9 483 0 550 -3 25 -8 70 -12 100 -4 30 -8 67 -10
82 -2 15 -6 41 -9 58 -3 17 -8 46 -11 65 -49 302 -168 646 -323 935 -34 63
-141 240 -153 253 -4 4 -7 -65 -8 -154 0 -201 -11 -454 -19 -482 -1 -4 -6 -39
-10 -79 -14 -141 -44 -345 -61 -423 -3 -13 -7 -36 -10 -52 -31 -205 -196 -742
-304 -992 -14 -32 -25 -62 -25 -67 0 -21 -187 -403 -249 -509 -115 -194 -318
-488 -432 -625 -17 -21 -51 -60 -75 -88 -120 -142 -430 -444 -569 -555 -22
-18 -55 -44 -72 -59 -37 -29 -273 -188 -360 -241 -294 -180 -664 -345 -981
-438 -37 -11 -76 -23 -85 -25 -9 -3 -38 -11 -65 -19 -160 -46 -512 -112 -656
-122 -33 -3 -76 -7 -95 -10 -45 -6 -456 -6 -525 0 -105 9 -149 14 -200 23 -27
5 -64 11 -81 14 -37 6 -216 50 -264 65 -19 6 -48 13 -65 16 -16 2 -48 12 -70
20 -22 9 -47 17 -56 19 -9 2 -38 12 -65 24 -27 11 -53 21 -59 22 -54 15 -405
180 -545 258 -85 47 -283 168 -295 181 -3 3 -43 32 -90 65 -251 177 -481 390
-708 656 -179 209 -212 251 -320 407 -101 148 -110 162 -228 377 -126 231
-285 612 -340 815 -2 8 -22 78 -44 155 -22 77 -41 151 -44 165 -2 14 -10 48
-16 75 -7 28 -14 58 -16 69 -2 10 -6 30 -9 45 -3 15 -8 35 -10 45 -2 10 -6 37
-9 60 -3 22 -8 51 -11 65 -9 36 -25 144 -45 295 -9 69 -18 145 -20 170 -2 25
-8 99 -14 165 -5 66 -12 151 -15 190 -3 38 -8 106 -12 150 l-6 80 -29 -80
c-73 -203 -158 -513 -188 -685 -4 -22 -8 -47 -11 -55 -2 -8 -6 -31 -9 -50 -3
-19 -8 -48 -11 -65 -8 -39 -52 -379 -60 -460 -3 -36 -8 -76 -9 -90 -2 -14 -7
-70 -10 -125 -4 -55 -9 -113 -11 -130 -7 -49 -6 -598 0 -655 3 -27 8 -81 11
-120 3 -38 8 -83 10 -100 2 -16 6 -52 9 -80 9 -87 17 -150 22 -175 2 -14 7
-45 10 -70 26 -196 103 -552 154 -710 6 -19 21 -69 33 -110 12 -41 26 -86 31
-100 5 -14 16 -43 23 -65 101 -297 298 -700 466 -960 120 -184 358 -485 457
-580 10 -9 47 -46 83 -84 65 -67 79 -80 136 -132 19 -17 42 -38 51 -48 9 -9
42 -37 73 -62 31 -25 62 -51 70 -57 7 -7 27 -22 44 -33 17 -11 32 -22 32 -26
0 -3 8 -11 18 -16 9 -6 32 -22 50 -35 88 -66 314 -202 457 -275 158 -81 456
-203 580 -238 17 -5 107 -31 145 -42 42 -12 236 -54 305 -65 22 -4 45 -8 50
-10 6 -1 39 -6 75 -10 36 -4 72 -8 80 -10 8 -2 53 -7 100 -11 98 -8 453 -5
525 5 28 4 77 10 110 15 33 4 62 9 65 10 3 1 32 5 65 9 78 11 323 66 418 95
42 12 82 24 89 25 12 2 183 62 278 98 211 79 475 212 715 360 80 50 315 215
380 266 28 22 52 40 55 40 3 0 17 11 33 25 15 14 30 25 32 25 3 0 35 26 71 58
146 128 148 130 153 125 3 -3 6 0 6 7 0 7 19 29 42 49 73 63 84 73 178 166
118 116 327 356 400 460 8 11 29 40 47 65 86 118 253 400 253 429 0 7 4 15 9
18 44 27 292 706 307 841 1 8 8 44 15 80 7 36 14 77 16 93 1 15 6 39 9 55 11
53 28 185 42 325 5 58 13 143 19 218 l11 126 -71 -153 c-252 -545 -555 -1036
-917 -1490 -90 -113 -350 -394 -470 -508 -257 -244 -616 -520 -895 -689 -71
-43 -131 -80 -135 -84 -5 -4 -32 -21 -60 -36 -29 -16 -76 -42 -105 -58 -218
-122 -551 -268 -805 -353 -94 -32 -231 -74 -275 -85 -8 -2 -38 -9 -65 -16 -28
-6 -59 -13 -70 -16 -11 -2 -31 -6 -45 -9 -14 -3 -43 -9 -65 -12 -22 -4 -47 -9
-55 -11 -8 -2 -36 -7 -63 -10 -26 -3 -59 -8 -72 -10 -13 -3 -52 -7 -87 -11
-36 -3 -81 -8 -100 -10 -43 -6 -475 -5 -545 0 -27 2 -84 6 -125 10 -41 3 -93
8 -115 11 -22 3 -56 7 -75 9 -47 5 -71 8 -140 20 -33 5 -71 12 -85 14 -14 3
-113 24 -220 46 -212 45 -551 144 -705 206 -198 81 -210 86 -329 137 -221 96
-567 291 -616 348 -3 3 -25 20 -50 38 -25 18 -47 36 -50 39 -3 3 -30 24 -60
47 -30 22 -66 51 -80 63 -14 13 -43 36 -65 53 -124 95 -387 346 -527 504 -45
51 -84 94 -87 97 -2 3 -24 30 -49 60 -25 30 -47 57 -51 60 -12 10 -162 220
-239 333 -108 160 -263 428 -351 609 -18 36 -36 72 -40 78 -25 40 -183 407
-183 426 0 5 -4 12 -9 15 -5 4 -22 46 -38 95 -16 50 -32 99 -37 109 -36 85
-240 856 -251 949 -1 10 -3 20 -4 22 -2 1 -4 7 -5 12 -1 6 -3 11 -5 13 -1 1
-3 15 -4 30 -2 16 -6 43 -10 60 -3 18 -8 46 -11 63 -2 17 -6 39 -9 50 -2 10
-7 37 -10 59 -3 22 -10 69 -16 105 -6 36 -13 81 -16 100 -2 19 -7 55 -10 80
-3 25 -7 61 -10 80 -7 56 -15 143 -20 216 -3 38 -7 80 -9 95 -27 190 -27 1108
0 1254 2 11 7 54 10 95 4 41 9 84 11 95 2 11 6 40 9 65 4 25 11 76 17 115 6
38 13 83 15 100 3 16 12 66 21 110 9 44 18 94 21 110 2 17 16 77 29 135 14 58
28 122 31 143 4 20 11 37 16 37 5 0 9 6 9 13 0 12 84 266 114 344 5 11 34 83
65 160 32 77 62 149 68 160 6 11 47 99 91 195 45 96 87 184 93 195 7 11 32 61
56 110 25 50 53 106 63 125 10 19 24 46 30 60 7 14 18 34 25 45 7 11 19 34 28
50 15 30 214 363 256 430 39 61 207 306 236 342 10 13 16 23 14 23 -4 0 44 56
111 132 34 37 174 183 209 217 67 64 175 161 183 164 4 2 8 8 8 13 0 5 5 9 11
9 5 0 33 20 61 45 28 25 54 45 58 45 4 0 14 6 21 13 7 8 18 17 24 21 33 19
202 138 225 159 8 7 44 29 79 49 36 20 71 41 79 48 8 6 18 11 22 11 5 0 30 13
56 29 26 16 55 31 64 34 9 3 34 16 56 28 22 13 78 39 124 59 47 20 103 45 125
55 99 47 407 153 530 184 17 4 32 8 35 9 3 1 14 5 25 8 11 3 70 18 130 32 61
15 117 28 125 30 8 2 31 6 50 9 19 3 46 8 60 11 14 3 40 8 59 10 19 3 46 7 60
10 14 2 46 7 71 10 24 3 59 8 77 10 18 3 89 8 158 12 69 3 125 7 126 8 4 4 0
4 -154 2 -85 -1 -166 -3 -180 -4 -14 -1 -65 -6 -112 -10 -120 -10 -108 -9
-220 -25 -41 -5 -86 -12 -100 -14 -14 -3 -41 -7 -60 -10 -94 -14 -403 -87
-535 -126 -38 -11 -77 -21 -85 -23 -8 -2 -28 -8 -45 -15 -16 -6 -32 -11 -35
-10 -3 0 -17 -5 -32 -11 -16 -7 -28 -10 -28 -7 0 3 -17 -3 -37 -12 -21 -10
-46 -21 -55 -25 -139 -61 -208 -93 -211 -101 -2 -4 -8 -8 -13 -8 -8 0 -195
-97 -244 -126 -8 -5 -44 -27 -79 -48 -35 -22 -68 -42 -73 -46 -6 -4 -44 -31
-85 -60 -164 -116 -392 -313 -558 -482 -55 -56 -107 -109 -115 -116 -13 -12
-112 -126 -180 -207 -47 -56 -200 -261 -200 -268 0 -2 -25 -41 -55 -86 -30
-46 -55 -86 -55 -89 0 -3 -8 -16 -18 -29 -11 -14 -34 -54 -52 -91 -18 -37 -36
-69 -40 -73 -5 -3 -10 -18 -13 -33 -3 -15 -9 -29 -13 -32 -9 -5 -128 -266
-163 -359 -15 -38 -31 -77 -37 -86 -5 -9 -12 -28 -16 -41 -4 -14 -21 -64 -38
-111 -18 -48 -33 -91 -34 -96 -1 -6 -5 -18 -8 -28 -12 -29 -90 -294 -97 -330
-2 -11 -11 -47 -19 -80 -8 -33 -18 -73 -21 -90 -3 -16 -8 -39 -10 -50 -9 -39
-37 -193 -45 -250 -15 -103 -29 -213 -41 -330 -11 -103 -10 -559 0 -670 8 -84
26 -252 31 -295 3 -22 9 -62 14 -90 5 -27 12 -68 15 -90 3 -22 7 -47 10 -55 3
-8 8 -32 11 -52 3 -20 10 -55 15 -77 6 -23 13 -55 16 -73 8 -47 61 -248 105
-401 67 -234 220 -621 329 -834 l35 -66 6 137 c4 76 8 156 10 178 2 22 7 89
11 150 5 60 9 121 10 135 1 14 2 36 4 50 1 14 3 59 4 100 1 41 5 80 8 86 4 6
3 14 -2 17 -5 3 -7 17 -5 31 2 14 7 77 11 141 4 64 9 125 11 135 2 11 7 47 10
80 4 33 8 71 10 85 2 14 6 48 10 75 3 28 10 73 15 100 5 28 12 68 15 90 3 22
8 42 10 45 2 3 6 17 8 31 6 35 60 231 90 326 12 43 23 84 25 90 25 100 231
604 309 755 7 14 52 103 100 198 47 94 113 213 145 265 33 51 63 99 67 106 10
19 42 69 107 165 151 226 389 502 614 713 39 36 246 209 258 215 4 2 8 8 8 13
0 5 3 9 8 9 4 0 18 8 32 18 80 59 395 227 595 318 102 46 115 52 220 94 33 13
107 39 165 58 58 19 116 38 130 42 14 5 68 19 120 31 52 13 102 25 110 27 8 3
26 7 40 9 14 3 43 8 65 13 22 4 47 9 55 10 8 1 40 6 70 10 30 4 66 9 80 11 14
2 50 6 80 9 30 3 76 8 103 11 53 7 490 14 497 9z"/>
</g>
</svg> 